<?xml version="1.0" encoding="UTF-8" standalone="no"?><!DOCTYPE svg PUBLIC "-//W3C//DTD SVG 1.1//EN" "http://www.w3.org/Graphics/SVG/1.1/DTD/svg11.dtd"><svg width="100%" height="100%" viewBox="0 0 117 121" version="1.1" xmlns="http://www.w3.org/2000/svg" xmlns:xlink="http://www.w3.org/1999/xlink" xml:space="preserve" xmlns:serif="http://www.serif.com/" style="fill-rule:evenodd;clip-rule:evenodd;stroke-linejoin:round;stroke-miterlimit:2;"><g><rect x="0.21" y="115.249" width="116.58" height="5.381" style="fill:#010001;"/><path d="M109.889,7.924l-0,79.791c-0,4.17 -3.385,7.554 -7.555,7.554l-34.793,0c-4.17,0 -7.555,-3.384 -7.555,-7.554l0,-79.791c0,-4.169 3.385,-7.554 7.555,-7.554l34.793,-0c4.17,-0 7.555,3.385 7.555,7.554Zm-3.228,14.842c0,-3.44 -2.793,-6.233 -6.233,-6.233l-30.981,-0c-3.44,-0 -6.233,2.793 -6.233,6.233l-0,28.71c-0,3.44 2.793,6.233 6.233,6.233l30.981,0c3.44,0 6.233,-2.793 6.233,-6.233l0,-28.71Z" style="fill:#010001;"/><path d="M55.01,7.924l0,79.791c0,4.17 -3.385,7.554 -7.554,7.554l-34.794,0c-4.169,0 -7.554,-3.384 -7.554,-7.554c-0,0 -0.084,-19.314 -0.048,-31.345c0.017,-5.506 17.894,-48.446 17.894,-48.446c1.637,-4.08 3.385,-7.554 7.555,-7.554l16.947,-0c4.169,-0 7.554,3.385 7.554,7.554Zm-3.227,14.842c-0,-3.44 -2.793,-6.233 -6.234,-6.233l-13.134,-0c-3.44,-0 -7.152,-0.632 -8.815,4.53c0,-0 -10.115,27.886 -12.466,33.681c-1.668,4.111 3.355,3.271 6.795,3.271l27.62,-0.306c3.441,0 6.234,-2.793 6.234,-6.233l-0,-28.71Z" style="fill:#010001;"/><path d="M103.456,102.664c0,3.804 -4.149,6.892 -9.259,6.892c-5.11,0 -9.259,-3.088 -9.259,-6.892l18.518,0Zm-18.518,0c-0,3.804 -4.149,6.892 -9.26,6.892c-5.11,0 -9.259,-3.088 -9.259,-6.892l18.519,0Z" style="fill:#010001;"/><path d="M48.549,102.664c0,3.804 -4.149,6.892 -9.259,6.892c-5.11,0 -9.259,-3.088 -9.259,-6.892l18.518,0Zm-18.518,0c-0,3.804 -4.149,6.892 -9.26,6.892c-5.11,0 -9.259,-3.088 -9.259,-6.892l18.519,0Z" style="fill:#010001;"/></g></svg>